<?xml version="1.0" encoding="utf-8"?>
<!-- Generator: Adobe Illustrator 23.0.0, SVG Export Plug-In . SVG Version: 6.00 Build 0)  -->
<svg version="1.1" xmlns="http://www.w3.org/2000/svg" xmlns:xlink="http://www.w3.org/1999/xlink" x="0px" y="0px"
	 viewBox="0 0 340.2 170.1" style="enable-background:new 0 0 340.2 170.1;" xml:space="preserve">
<style type="text/css">
	.st0{fill:#6D6E70;stroke:#636466;stroke-width:0.2;stroke-miterlimit:10;}
</style>
<g id="eau_so_decadent">
</g>
<g id="decadence">
</g>
<g id="marc_jacobs">
	<g>
		<g>
			<path class="st0" d="M41.1,137.2H30.9v14.9h11.4l-0.4,1.7H28.3v-32.5h13.3v1.7H30.9v12.4h10.2V137.2z"/>
			<path class="st0" d="M47.7,145.1v1.8c0,3.7,1.9,5.7,5.5,5.7c3.7,0,5.5-1.5,5.5-6.6c0-4.1-1.3-6-5.9-8.6c-4.7-2.7-7-4.2-7-9
				c0-4,1.6-7.5,7.5-7.5c5,0,7.2,2.2,7.2,6.9v1.3h-2.6v-1.2c0-3.1-0.9-5.3-4.7-5.3c-3.9,0-4.9,2.5-4.9,5.5c0,3.8,1.1,4.9,5.3,7.4
				c5.7,3.2,7.5,4.9,7.5,10.3c0,4.5-1.3,8.5-8,8.5c-6.1,0-8.2-3-8.2-7.3v-1.8H47.7z"/>
			<path class="st0" d="M70.4,123h-7.2v-1.7H80v1.7h-7.1v30.8h-2.6V123z"/>
			<path class="st0" d="M85.6,121.3v25.8c0,3,1.5,5.3,5.5,5.3c4.1,0,5.5-1.9,5.5-5.3v-25.9h2.6V147c0,4.9-3,7.2-8.2,7.2
				c-5.2,0-8-2.3-8-7v-25.9H85.6z"/>
			<path class="st0" d="M106.2,121.3h6.6c9.8,0,9.9,5.1,9.9,9.4v13.2c0,5-0.9,9.9-10.5,9.9h-6V121.3z M108.8,152.1h3.2
				c6.3,0,8.1-2.3,8.1-7.5v-14.3c0-4.5-1.1-7.3-8-7.3h-3.3V152.1z"/>
			<path class="st0" d="M131.6,121.3v32.5H129v-32.5H131.6z"/>
			<path class="st0" d="M154.5,128.6v17.6c0,5.2-2.8,8-8.5,8c-6.5,0-8.3-3.4-8.3-8v-17.6c0-4.8,2.6-7.8,8.5-7.8
				C152.6,120.9,154.5,124.6,154.5,128.6z M140.3,128.8v17.4c0,4.6,2.3,6.3,5.8,6.3c3.6,0,5.7-1.6,5.7-6.5v-17.1
				c0-4.3-2.2-6.2-5.8-6.2C142.1,122.6,140.3,124.5,140.3,128.8z"/>
			<path class="st0" d="M184.6,144.9v0.9c0,4.6-1.2,8.4-7.8,8.4c-7.1,0-8-4.2-8-8.8v-16.7c0-5.4,3-7.8,8-7.8c6.6,0,7.6,3.7,7.6,7.7
				v1.1h-2.7v-1c0-3-0.4-6.1-5.1-6.1c-4.3,0-5.3,2.7-5.3,6.2v16.6c0,4.4,1.4,7.1,5.5,7.1c4.5,0,5.1-3,5.1-6.7v-0.9H184.6z"/>
			<path class="st0" d="M192.4,138v15.8h-2.6v-32.5h6c6.6,0,9.1,2.2,9.1,7.1v1.7c0,3.8-1.4,6.2-4.5,6.9c3,0.6,4.2,2.4,4.2,6.7
				c0,2.8-0.1,7.9,0.5,10.1h-2.5c-0.5-2.1-0.5-7.7-0.5-9.9c0-4.5-0.9-6-5.8-6H192.4z M192.4,136.3h4.3c4.8,0,5.7-2.6,5.7-6v-1.8
				c0-3.4-1.5-5.5-6.5-5.5h-3.4V136.3z"/>
			<path class="st0" d="M223.6,137.2h-10.2v14.9h11.4l-0.4,1.7h-13.5v-32.5h13.3v1.7h-10.8v12.4h10.2V137.2z"/>
			<path class="st0" d="M233.1,141.7l-2.7,12.1h-2.6l7.4-32.5h3.7l7.8,32.5h-2.7l-2.8-12.1H233.1z M240.8,140
				c-2.1-8.8-3.4-14.7-3.7-17.1H237c-0.1,2.3-2,10-3.5,17.1H240.8z"/>
			<path class="st0" d="M252.3,123h-7.2v-1.7H262v1.7h-7.1v30.8h-2.6V123z"/>
			<path class="st0" d="M268.1,121.3v32.5h-2.6v-32.5H268.1z"/>
			<path class="st0" d="M280.2,153.8l-7.7-32.5h2.8l3.6,16c1.1,4.7,2.7,11.2,3.1,14.2h0.1c0.3-3,2-9.5,3.1-14.1l3.8-16.1h2.7
				l-8,32.5H280.2z"/>
			<path class="st0" d="M311.8,128.6v17.6c0,5.2-2.8,8-8.5,8c-6.5,0-8.3-3.4-8.3-8v-17.6c0-4.8,2.6-7.8,8.5-7.8
				C309.9,120.9,311.8,124.6,311.8,128.6z M297.6,128.8v17.4c0,4.6,2.3,6.3,5.8,6.3c3.6,0,5.7-1.6,5.7-6.5v-17.1
				c0-4.3-2.2-6.2-5.8-6.2C299.4,122.6,297.6,124.5,297.6,128.8z"/>
		</g>
		<g>
			<polygon class="st0" points="53.9,15.9 28.3,15.9 28.3,116.1 80.1,116.1 80.1,56.7 57.3,56.7 57.3,100 51.2,100 51.2,50.6 
				80.1,50.6 80.1,33.9 53.9,33.9 			"/>
			<path class="st0" d="M86.3,116.1h51.8V80.3h-22.8V100h-6.1V74.2h29V15.9H86.3V116.1z M109.1,32h6.1v26h-6.1V32z"/>
			<path class="st0" d="M144.2,116.1H167v-21h29V15.9h-51.8V116.1z M167,32h6.1v47H167V32z"/>
			<polygon class="st0" points="231.1,100 224.9,100 224.9,15.9 202.1,15.9 202.1,116.1 253.9,116.1 253.9,15.9 231.1,15.9 			"/>
			<polygon class="st0" points="289,15.9 289,79 282.8,79 282.8,15.9 260,15.9 260,95.2 289,95.2 289,101.3 260,101.3 260,116.1 
				311.8,116.1 311.8,15.9 			"/>
		</g>
	</g>
</g>
</svg>
